<?xml version="1.0" encoding="UTF-8"?> <svg xmlns="http://www.w3.org/2000/svg" data-v-fde0c5aa="" viewBox="0 0 300 300" class="iconAbove"><defs data-v-fde0c5aa=""></defs><rect data-v-fde0c5aa="" fill="#106989" x="0" y="0" width="300px" height="300px" class="logo-background-square"></rect><defs data-v-fde0c5aa=""></defs><g data-v-fde0c5aa="" id="9c369070-81da-4dc8-8de4-b584899cde64" fill="#E5D5E4" transform="matrix(2.3510262966156006,0,0,2.3510262966156006,19.764897373589736,166.64083468394793)"><path d="M8.95 6.53L7.35 11.33L5.88 6.53L4.70 6.53L3.22 11.33L1.60 6.53L0.10 6.53L2.61 13.15L3.79 13.15L5.29 8.17L6.78 13.15L7.96 13.15L10.47 6.53ZM17.75 9.70C17.75 7.73 16.42 6.36 14.50 6.36C12.51 6.36 11.08 7.89 11.08 9.84C11.08 11.80 12.50 13.31 14.67 13.31C15.81 13.31 16.77 12.92 17.37 12.25L16.39 11.46C15.97 11.94 15.40 12.19 14.66 12.19C13.42 12.19 12.67 11.33 12.57 10.15L17.75 10.15ZM14.50 7.50C15.53 7.50 16.20 8.12 16.35 9.17L12.63 9.17C12.83 8.17 13.52 7.50 14.50 7.50ZM22.75 6.36C21.80 6.36 21.07 6.72 20.56 7.32L20.56 3.24L19.15 3.24L19.15 13.15L20.30 13.15L20.48 12.25C20.99 12.91 21.76 13.31 22.75 13.31C24.47 13.31 25.84 12.00 25.84 9.84C25.84 7.69 24.47 6.36 22.75 6.36ZM22.41 12.12C21.18 12.12 20.37 11.14 20.37 9.84C20.37 8.55 21.18 7.55 22.41 7.55C23.61 7.55 24.40 8.55 24.40 9.84C24.40 11.14 23.61 12.12 22.41 12.12ZM35.88 3.24L35.88 7.32C35.36 6.72 34.64 6.36 33.69 6.36C31.97 6.36 30.60 7.69 30.60 9.84C30.60 12.00 31.97 13.31 33.69 13.31C34.68 13.31 35.45 12.91 35.96 12.25L36.14 13.15L37.29 13.15L37.29 3.24ZM34.02 12.12C32.83 12.12 32.04 11.14 32.04 9.84C32.04 8.55 32.83 7.55 34.02 7.55C35.26 7.55 36.06 8.55 36.06 9.84C36.06 11.14 35.26 12.12 34.02 12.12ZM45.34 9.70C45.34 7.73 44.01 6.36 42.09 6.36C40.10 6.36 38.67 7.89 38.67 9.84C38.67 11.80 40.09 13.31 42.26 13.31C43.40 13.31 44.36 12.92 44.96 12.25L43.98 11.46C43.56 11.94 42.99 12.19 42.25 12.19C41.01 12.19 40.26 11.33 40.16 10.15L45.34 10.15ZM42.09 7.50C43.12 7.50 43.79 8.12 43.94 9.17L40.22 9.17C40.42 8.17 41.11 7.50 42.09 7.50ZM51.25 6.53L49.32 11.48L47.38 6.53L45.88 6.53L48.74 13.15L49.90 13.15L52.76 6.53ZM59.94 9.70C59.94 7.73 58.61 6.36 56.69 6.36C54.70 6.36 53.27 7.89 53.27 9.84C53.27 11.80 54.69 13.31 56.86 13.31C58.00 13.31 58.96 12.92 59.56 12.25L58.58 11.46C58.16 11.94 57.59 12.19 56.85 12.19C55.61 12.19 54.86 11.33 54.76 10.15L59.94 10.15ZM56.69 7.50C57.72 7.50 58.39 8.12 58.54 9.17L54.82 9.17C55.02 8.17 55.71 7.50 56.69 7.50ZM61.40 13.15L62.81 13.15L62.81 3.24L61.40 3.24ZM67.81 13.34C69.90 13.34 71.36 11.81 71.36 9.84C71.36 7.89 69.90 6.36 67.81 6.36C65.70 6.36 64.25 7.89 64.25 9.84C64.25 11.81 65.70 13.34 67.81 13.34ZM67.81 12.13C66.59 12.13 65.73 11.14 65.73 9.84C65.73 8.56 66.59 7.57 67.81 7.57C69.02 7.57 69.88 8.56 69.88 9.84C69.88 11.14 69.02 12.13 67.81 12.13ZM76.37 6.36C75.38 6.36 74.62 6.77 74.10 7.42L73.98 6.53L72.74 6.53L72.74 16.22L74.16 16.22L74.16 12.32C74.67 12.94 75.41 13.31 76.37 13.31C78.09 13.31 79.46 12.00 79.46 9.84C79.46 7.69 78.09 6.36 76.37 6.36ZM76.04 12.12C74.80 12.12 74.00 11.14 74.00 9.84C74.00 8.55 74.80 7.55 76.04 7.55C77.23 7.55 78.02 8.55 78.02 9.84C78.02 11.14 77.23 12.12 76.04 12.12ZM88.16 6.36C86.99 6.36 86.41 6.80 85.98 7.41C85.56 6.66 84.83 6.36 84.07 6.36C83.31 6.36 82.63 6.72 82.25 7.38L82.09 6.53L80.85 6.53L80.85 13.15L82.26 13.15L82.26 9.26C82.35 8.15 82.88 7.57 83.72 7.57C84.63 7.57 84.99 8.31 84.99 9.39L84.99 13.15L86.41 13.15L86.41 9.60C86.41 8.30 86.93 7.57 87.85 7.57C88.77 7.57 89.13 8.31 89.13 9.38L89.13 13.15L90.55 13.15L90.55 9.28C90.55 7.12 89.41 6.36 88.16 6.36ZM98.53 9.70C98.53 7.73 97.20 6.36 95.27 6.36C93.29 6.36 91.86 7.89 91.86 9.84C91.86 11.80 93.28 13.31 95.45 13.31C96.59 13.31 97.55 12.92 98.15 12.25L97.17 11.46C96.75 11.94 96.18 12.19 95.43 12.19C94.19 12.19 93.45 11.33 93.35 10.15L98.53 10.15ZM95.27 7.50C96.31 7.50 96.98 8.12 97.13 9.17L93.41 9.17C93.61 8.17 94.30 7.50 95.27 7.50ZM103.38 6.36C102.45 6.36 101.75 6.75 101.34 7.32L101.16 6.53L99.93 6.53L99.93 13.15L101.34 13.15L101.34 9.11C101.46 7.95 102.24 7.57 102.99 7.57C104.01 7.57 104.45 8.30 104.45 9.38L104.45 13.15L105.86 13.15L105.86 9.06C105.86 7 104.53 6.36 103.38 6.36ZM110.69 6.53L109.27 6.53L109.27 4.64L107.87 4.64L107.87 6.53L107.00 6.53L107.00 7.67L107.87 7.67L107.87 13.15L109.29 13.15L109.27 7.67L110.69 7.67Z"></path></g><defs data-v-fde0c5aa=""></defs><g data-v-fde0c5aa="" id="93290771-4ee2-4efc-bece-492c5ffee4e1" stroke="none" fill="#E5D5E4" transform="matrix(0.9536349773406982,0,0,0.9536349773406982,119.48368062289082,95.22552093433623)"><path d="M8.081 35.383l16.318 7.581V39.36l-12.341-5.405v-.068l12.341-5.405v-3.604L8.081 32.459zM26.918 44.324h3.434l7.275-24.648h-3.434zM39.601 28.482l12.613 5.405v.068L39.601 39.36v3.603l16.318-7.479v-3.127l-16.318-7.479z"></path><path d="M0 64h64V0H0v64zM2 2h60v60H2V2z"></path></g></svg> 